<?xml version="1.0" encoding="UTF-8"?>
<!DOCTYPE svg PUBLIC "-//W3C//DTD SVG 1.1//EN" "http://www.w3.org/Graphics/SVG/1.1/DTD/svg11.dtd">
<svg xmlns="http://www.w3.org/2000/svg" version="1.1" width="846px" height="636px" style="shape-rendering:geometricPrecision; text-rendering:geometricPrecision; image-rendering:optimizeQuality; fill-rule:evenodd; clip-rule:evenodd" xmlns:xlink="http://www.w3.org/1999/xlink">
<g><path style="opacity:1" fill="#061c26" d="M -0.5,-0.5 C 281.5,-0.5 563.5,-0.5 845.5,-0.5C 845.5,211.5 845.5,423.5 845.5,635.5C 563.5,635.5 281.5,635.5 -0.5,635.5C -0.5,423.5 -0.5,211.5 -0.5,-0.5 Z"/></g>
<g><path style="opacity:1" fill="#60d6e2" d="M 428.5,123.5 C 421.167,124.833 413.833,124.833 406.5,123.5C 410.104,122.348 413.771,121.348 417.5,120.5C 421.043,121.969 424.709,122.969 428.5,123.5 Z"/></g>
<g><path style="opacity:1" fill="#28626d" d="M 406.5,123.5 C 413.833,124.833 421.167,124.833 428.5,123.5C 429.766,124.09 431.099,124.59 432.5,125C 422.5,125.667 412.5,125.667 402.5,125C 403.901,124.59 405.234,124.09 406.5,123.5 Z"/></g>
<g><path style="opacity:1" fill="#61d7e3" d="M 461.5,140.5 C 460.778,141.551 459.778,142.218 458.5,142.5C 454.272,140.923 449.939,139.423 445.5,138C 440.799,137.281 436.133,137.447 431.5,138.5C 429.369,137.037 427.035,136.037 424.5,135.5C 422.078,135.257 420.412,136.257 419.5,138.5C 422.004,145.084 425.838,146.084 431,141.5C 433.493,143.56 436.326,145.06 439.5,146C 450.955,148.065 460.288,153.732 467.5,163C 464.43,162.985 461.43,162.318 458.5,161C 448.456,156.764 438.289,152.931 428,149.5C 422.13,150.234 419.297,153.567 419.5,159.5C 419.5,161.833 419.5,164.167 419.5,166.5C 419.229,168.312 418.562,169.978 417.5,171.5C 415.509,168.86 414.509,165.86 414.5,162.5C 416.779,155.114 414.113,150.781 406.5,149.5C 393.533,154.321 380.533,158.821 367.5,163C 375.082,152.879 385.082,146.879 397.5,145C 399.762,143.953 401.929,142.787 404,141.5C 408.24,145.871 411.573,145.204 414,139.5C 414.684,138.216 414.517,137.049 413.5,136C 411.5,135.333 409.5,135.333 407.5,136C 406.226,137.221 404.726,138.054 403,138.5C 398.208,137.414 393.375,137.247 388.5,138C 383.241,140.134 377.908,141.967 372.5,143.5C 371.833,143.5 371.5,143.167 371.5,142.5C 372.043,142.44 372.376,142.107 372.5,141.5C 371.148,140.476 369.815,139.476 368.5,138.5C 371.167,137.833 373.833,137.167 376.5,136.5C 387.794,132.209 399.46,130.709 411.5,132C 413.664,132.914 415.664,134.081 417.5,135.5C 421.713,132.096 426.547,130.763 432,131.5C 440.974,132.429 449.808,134.262 458.5,137C 461.23,137.728 463.897,137.562 466.5,136.5C 467.293,137.355 466.96,138.189 465.5,139C 464.255,139.791 462.922,140.291 461.5,140.5 Z"/></g>
<g><path style="opacity:1" fill="#2b6974" d="M 376.5,136.5 C 373.833,137.167 371.167,137.833 368.5,138.5C 366.683,137.781 366.016,136.781 366.5,135.5C 369.758,136.417 373.091,136.751 376.5,136.5 Z"/></g>
<g><path style="opacity:1" fill="#4dafbb" d="M 461.5,140.5 C 461.577,141.75 462.244,142.583 463.5,143C 470.762,144.982 478.095,146.649 485.5,148C 476.011,148.208 467.011,146.375 458.5,142.5C 459.778,142.218 460.778,141.551 461.5,140.5 Z"/></g>
<g><path style="opacity:1" fill="#46a0ac" d="M 371.5,142.5 C 371.5,143.167 371.833,143.5 372.5,143.5C 368.137,145.553 363.47,147.053 358.5,148C 355.167,148.667 351.833,148.667 348.5,148C 356.264,146.481 363.931,144.648 371.5,142.5 Z"/></g>
<g><path style="opacity:1" fill="#225560" d="M 419.5,159.5 C 420.397,160.598 421.23,160.598 422,159.5C 422.513,160.527 423.013,161.527 423.5,162.5C 422.566,163.568 422.232,164.901 422.5,166.5C 421.5,166.5 420.5,166.5 419.5,166.5C 419.5,164.167 419.5,161.833 419.5,159.5 Z"/></g>
<g><path style="opacity:1" fill="#60d5e1" d="M 398.5,161.5 C 402.419,160.746 403.753,162.08 402.5,165.5C 397.325,168.588 391.992,171.421 386.5,174C 381.018,174.066 375.684,174.899 370.5,176.5C 369.253,174.994 369.253,173.494 370.5,172C 373.502,169.497 376.835,167.497 380.5,166C 386.697,164.8 392.697,163.3 398.5,161.5 Z"/></g>
<g><path style="opacity:1" fill="#61d8e4" d="M 431.5,161.5 C 440.648,163.101 449.648,165.267 458.5,168C 462.656,170.124 465.156,173.29 466,177.5C 458.711,174.977 451.211,173.143 443.5,172C 439.993,169.746 436.327,167.746 432.5,166C 431.62,164.644 431.286,163.144 431.5,161.5 Z"/></g>
<g><path style="opacity:1" fill="#5ac9d5" d="M 411.5,161.5 C 413.154,165.369 412.154,168.535 408.5,171C 406.833,171.667 405.167,171.667 403.5,171C 406.724,168.278 409.391,165.112 411.5,161.5 Z"/></g>
<g><path style="opacity:1" fill="#5bcbd7" d="M 423.5,162.5 C 425.367,166.052 428.034,168.886 431.5,171C 427.077,172.122 424.077,170.622 422.5,166.5C 422.232,164.901 422.566,163.568 423.5,162.5 Z"/></g>
<g><path style="opacity:1" fill="#5fd2de" d="M 401.5,185.5 C 400.542,185.953 399.708,186.619 399,187.5C 398.583,186.244 397.75,185.577 396.5,185.5C 397.5,183.114 398.167,180.947 398.5,179C 402.655,178.282 406.488,176.782 410,174.5C 410.808,176.579 410.641,178.579 409.5,180.5C 406.469,181.677 403.802,183.344 401.5,185.5 Z"/></g>
<g><path style="opacity:1" fill="#5bcbd7" d="M 423.5,174.5 C 427.67,176.75 432.003,178.75 436.5,180.5C 438.117,182.632 438.617,184.965 438,187.5C 437.259,186.359 436.425,186.359 435.5,187.5C 432.057,184.115 428.057,181.782 423.5,180.5C 423.5,178.5 423.5,176.5 423.5,174.5 Z"/></g>
<g><path style="opacity:1" fill="#62dae6" d="M 333.5,222.5 C 332.833,219.5 332.167,216.5 331.5,213.5C 330.207,212.355 329.041,212.689 328,214.5C 326.155,216.867 324.989,219.533 324.5,222.5C 322.806,230.939 322.139,239.605 322.5,248.5C 322.869,250.993 322.203,251.66 320.5,250.5C 319.196,246.64 318.529,242.64 318.5,238.5C 316.839,227.052 317.173,215.718 319.5,204.5C 320.659,202.623 322.326,202.123 324.5,203C 326.213,204.378 327.547,206.045 328.5,208C 336.919,211.386 339.919,208.553 337.5,199.5C 332.675,199.512 330.509,197.179 331,192.5C 335.04,186.583 339.873,181.416 345.5,177C 346.793,176.51 348.127,176.343 349.5,176.5C 346.925,184.615 345.425,192.948 345,201.5C 343.014,203.806 341.847,206.472 341.5,209.5C 342.377,212.382 343.71,215.049 345.5,217.5C 345.167,218.167 344.833,218.833 344.5,219.5C 339.64,216.298 335.973,217.298 333.5,222.5 Z"/></g>
<g><path style="opacity:1" fill="#62d9e5" d="M 516.5,206.5 C 518.641,216.059 518.975,225.726 517.5,235.5C 516.509,240.05 515.509,244.717 514.5,249.5C 513.637,251.421 512.971,253.421 512.5,255.5C 511.662,255.158 511.328,254.492 511.5,253.5C 513.827,240.026 512.327,227.026 507,214.5C 505.959,212.689 504.793,212.355 503.5,213.5C 502.833,217.167 502.167,220.833 501.5,224.5C 500.064,217.707 496.397,216.041 490.5,219.5C 489.28,219.113 488.613,218.28 488.5,217C 494.564,212.752 495.064,207.919 490,202.5C 489.76,193.798 487.927,185.465 484.5,177.5C 486.55,176.337 488.55,176.504 490.5,178C 495.034,182.199 499.201,186.699 503,191.5C 503.667,193.5 503.667,195.5 503,197.5C 496.427,199.377 494.927,203.21 498.5,209C 500.913,209.484 503.246,209.15 505.5,208C 507.429,205.562 509.762,203.728 512.5,202.5C 514.715,202.916 516.049,204.25 516.5,206.5 Z"/></g>
<g><path style="opacity:1" fill="#5cceda" d="M 389.5,177.5 C 390.873,177.343 392.207,177.51 393.5,178C 385.774,183.443 377.608,187.943 369,191.5C 369.472,187.982 371.306,185.149 374.5,183C 379.266,180.248 384.266,178.414 389.5,177.5 Z"/></g>
<g><path style="opacity:1" fill="#5dd0dc" d="M 440.5,178.5 C 440.735,177.903 441.235,177.57 442,177.5C 447.284,178.206 452.451,179.373 457.5,181C 460.295,182.793 462.795,184.96 465,187.5C 465.667,188.5 465.667,189.5 465,190.5C 456.546,187.245 448.38,183.245 440.5,178.5 Z"/></g>
<g><path style="opacity:1" fill="#1a4651" d="M 396.5,185.5 C 397.75,185.577 398.583,186.244 399,187.5C 399.708,186.619 400.542,185.953 401.5,185.5C 400.075,189.823 397.742,193.49 394.5,196.5C 394.5,196.167 394.5,195.833 394.5,195.5C 395.441,193.534 396.441,191.534 397.5,189.5C 395.62,188.286 395.287,186.952 396.5,185.5 Z"/></g>
<g><path style="opacity:1" fill="#5fd3df" d="M 407.5,196.5 C 406.833,195.833 406.167,195.167 405.5,194.5C 403.801,194.66 402.134,194.494 400.5,194C 403.037,191.128 405.87,188.628 409,186.5C 411.367,190.342 410.867,193.675 407.5,196.5 Z"/></g>
<g><path style="opacity:1" fill="#5cceda" d="M 429.5,194.5 C 428.833,195.167 428.167,195.833 427.5,196.5C 426.375,194.871 425.041,193.371 423.5,192C 424.264,189.931 424.764,187.764 425,185.5C 428.576,188.719 431.576,192.053 434,195.5C 432.644,194.62 431.144,194.286 429.5,194.5 Z"/></g>
<g><path style="opacity:1" fill="#5ed2de" d="M 476.5,190.5 C 477.649,190.791 478.316,191.624 478.5,193C 479.06,196.359 479.726,199.692 480.5,203C 478.385,207.532 475.051,209.699 470.5,209.5C 473.007,207.192 473.674,204.525 472.5,201.5C 470.172,204.66 467.339,207.327 464,209.5C 465.28,205.358 466.113,201.025 466.5,196.5C 470.793,196.023 474.127,194.023 476.5,190.5 Z"/></g>
<g><path style="opacity:1" fill="#5fd2de" d="M 355.5,191.5 C 359.738,193.454 364.071,195.121 368.5,196.5C 368.008,200.457 368.675,204.123 370.5,207.5C 370.167,207.833 369.833,208.167 369.5,208.5C 366.71,205.688 363.71,203.354 360.5,201.5C 361.004,205.199 362.67,208.365 365.5,211C 361.282,209.8 357.449,207.634 354,204.5C 354.639,200.244 355.139,195.911 355.5,191.5 Z"/></g>
<g><path style="opacity:1" fill="#5bcbd7" d="M 394.5,195.5 C 394.5,195.833 394.5,196.167 394.5,196.5C 391.234,200.991 388.9,205.991 387.5,211.5C 386.833,207.5 386.167,203.5 385.5,199.5C 384.051,196.949 384.385,194.615 386.5,192.5C 388.22,196.257 390.887,197.257 394.5,195.5 Z"/></g>
<g><path style="opacity:1" fill="#57c2ce" d="M 446.5,191.5 C 450.427,193.21 451.26,195.877 449,199.5C 449.369,216.363 447.702,216.696 444,200.5C 441.387,198.599 439.72,196.265 439,193.5C 443.203,197.995 445.703,197.328 446.5,191.5 Z"/></g>
<g><path style="opacity:1" fill="#3e909b" d="M 429.5,194.5 C 430.26,198.027 431.594,201.36 433.5,204.5C 432.833,205.833 432.167,205.833 431.5,204.5C 430.153,201.807 428.82,199.14 427.5,196.5C 428.167,195.833 428.833,195.167 429.5,194.5 Z"/></g>
<g><path style="opacity:1" fill="#4297a2" d="M 405.5,194.5 C 406.167,195.167 406.833,195.833 407.5,196.5C 405.678,199.472 403.844,202.472 402,205.5C 402.573,201.676 403.74,198.01 405.5,194.5 Z"/></g>
<g><path style="opacity:1" fill="#1e4e59" d="M 385.5,199.5 C 386.167,203.5 386.833,207.5 387.5,211.5C 387.013,212.473 386.513,213.473 386,214.5C 385.501,209.511 385.334,204.511 385.5,199.5 Z"/></g>
<g><path style="opacity:1" fill="#1c4a55" d="M 503.5,213.5 C 503.666,218.179 503.499,222.845 503,227.5C 501.961,226.756 501.461,225.756 501.5,224.5C 502.167,220.833 502.833,217.167 503.5,213.5 Z"/></g>
<g><path style="opacity:1" fill="#18414b" d="M 516.5,206.5 C 518.067,207.681 518.901,209.347 519,211.5C 519.167,214.833 519.333,218.167 519.5,221.5C 519.7,226.437 519.033,231.104 517.5,235.5C 518.975,225.726 518.641,216.059 516.5,206.5 Z"/></g>
<g><path style="opacity:1" fill="#2e6f7a" d="M 331.5,213.5 C 332.167,216.5 332.833,219.5 333.5,222.5C 333.291,223.922 332.791,225.255 332,226.5C 331.501,222.179 331.334,217.846 331.5,213.5 Z"/></g>
<g><path style="opacity:1" fill="#50b4c0" d="M 319.5,204.5 C 317.173,215.718 316.839,227.052 318.5,238.5C 316.971,233.084 316.305,227.417 316.5,221.5C 316.667,217.5 316.833,213.5 317,209.5C 317.374,207.509 318.207,205.842 319.5,204.5 Z"/></g>
<g><path style="opacity:1" fill="#60d6e2" d="M 365.5,221.5 C 366.5,221.5 367.5,221.5 368.5,221.5C 368.5,222.5 368.5,223.5 368.5,224.5C 367.5,224.5 366.5,224.5 365.5,224.5C 365.5,223.5 365.5,222.5 365.5,221.5 Z"/></g>
<g><path style="opacity:1" fill="#337a85" d="M 377.5,223.5 C 376.833,223.5 376.5,223.833 376.5,224.5C 375.404,222.897 374.07,221.397 372.5,220C 374.772,220.077 376.438,221.243 377.5,223.5 Z"/></g>
<g><path style="opacity:1" fill="#5dcfdb" d="M 467.5,221.5 C 468.5,221.5 469.5,221.5 470.5,221.5C 470.5,222.5 470.5,223.5 470.5,224.5C 469.5,224.5 468.5,224.5 467.5,224.5C 467.5,223.5 467.5,222.5 467.5,221.5 Z"/></g>
<g><path style="opacity:1" fill="#5cceda" d="M 337.5,224.5 C 339.655,224.372 341.655,224.872 343.5,226C 347.268,231.769 352.268,236.102 358.5,239C 352.4,237.633 346.4,235.633 340.5,233C 336.798,230.997 335.798,228.164 337.5,224.5 Z"/></g>
<g><path style="opacity:1" fill="#5fd3df" d="M 453.5,239.5 C 452.632,236.673 452.632,233.673 453.5,230.5C 454.419,227.911 456.086,225.911 458.5,224.5C 459.167,225.833 459.833,227.167 460.5,228.5C 463.152,232.314 466.819,233.481 471.5,232C 477.417,228.767 479.083,223.934 476.5,217.5C 479.897,216.506 483.23,216.84 486.5,218.5C 484.43,222.535 482.263,226.535 480,230.5C 474.325,236.533 467.491,238.199 459.5,235.5C 459.915,237.747 460.582,239.914 461.5,242C 461.491,243.404 460.991,244.57 460,245.5C 458.02,243.101 455.853,241.101 453.5,239.5 Z"/></g>
<g><path style="opacity:1" fill="#29646e" d="M 460.5,228.5 C 459.833,227.167 459.167,225.833 458.5,224.5C 458.926,222.042 460.259,220.876 462.5,221C 460.722,223.135 460.055,225.635 460.5,228.5 Z"/></g>
<g><path style="opacity:1" fill="#5dd0dc" d="M 493.5,224.5 C 494.833,224.5 496.167,224.5 497.5,224.5C 497.945,227.365 497.278,229.865 495.5,232C 489.459,234.402 483.459,236.902 477.5,239.5C 476.304,239.154 476.304,238.654 477.5,238C 478.833,237.333 480.167,236.667 481.5,236C 485.395,231.935 489.395,228.102 493.5,224.5 Z"/></g>
<g><path style="opacity:1" fill="#5ed2de" d="M 376.5,224.5 C 376.5,223.833 376.833,223.5 377.5,223.5C 382.913,227.901 385.079,233.568 384,240.5C 382.951,239.483 381.784,239.316 380.5,240C 379.36,241.973 378.027,243.807 376.5,245.5C 375.054,244.829 374.388,243.662 374.5,242C 375.418,239.914 376.085,237.747 376.5,235.5C 367.525,238.417 360.358,236.084 355,228.5C 353.583,224.738 352.083,221.071 350.5,217.5C 353.799,216.624 357.132,216.457 360.5,217C 356.64,228.148 360.64,233.148 372.5,232C 375.397,230.285 376.731,227.785 376.5,224.5 Z"/></g>
<g><path style="opacity:1" fill="#3d8d99" d="M 453.5,230.5 C 452.632,233.673 452.632,236.673 453.5,239.5C 453.44,240.043 453.107,240.376 452.5,240.5C 451.16,236.903 451.493,233.57 453.5,230.5 Z"/></g>
<g><path style="opacity:1" fill="#1c4953" d="M 324.5,222.5 C 323.854,231.152 323.521,239.818 323.5,248.5C 323.167,248.5 322.833,248.5 322.5,248.5C 322.139,239.605 322.806,230.939 324.5,222.5 Z"/></g>
<g><path style="opacity:1" fill="#1d4c57" d="M 517.5,235.5 C 517.956,240.596 516.956,245.262 514.5,249.5C 515.509,244.717 516.509,240.05 517.5,235.5 Z"/></g>
<g><path style="opacity:1" fill="#5ac8d4" d="M 503.5,238.5 C 500.484,250.812 493.15,253.645 481.5,247C 487.689,246.221 493.689,244.888 499.5,243C 501.041,241.629 502.375,240.129 503.5,238.5 Z"/></g>
<g><path style="opacity:1" fill="#5acad6" d="M 329.5,236.5 C 331.153,238.961 333.153,241.128 335.5,243C 340.9,245.183 346.566,246.517 352.5,247C 340.438,253.477 332.771,249.977 329.5,236.5 Z"/></g>
<g><path style="opacity:1" fill="#5fd3df" d="M 336.5,253.5 C 338.734,254.447 341.068,255.114 343.5,255.5C 345.524,254.979 347.524,254.812 349.5,255C 347.225,257.948 344.391,260.114 341,261.5C 338.038,259.693 336.538,257.027 336.5,253.5 Z"/></g>
<g><path style="opacity:1" fill="#5bcbd7" d="M 481.5,252.5 C 481.56,251.957 481.893,251.624 482.5,251.5C 486.95,255.963 491.95,256.629 497.5,253.5C 497.833,254 498.167,254.5 498.5,255C 497.287,256.63 496.454,258.464 496,260.5C 495.439,261.022 494.772,261.355 494,261.5C 489.128,259.458 484.961,256.458 481.5,252.5 Z"/></g>
<g><path style="opacity:1" fill="#38828e" d="M 322.5,248.5 C 322.833,248.5 323.167,248.5 323.5,248.5C 323.595,254.214 324.929,259.548 327.5,264.5C 327.167,264.5 326.833,264.5 326.5,264.5C 323.952,260.07 321.952,255.403 320.5,250.5C 322.203,251.66 322.869,250.993 322.5,248.5 Z"/></g>
<g><path style="opacity:1" fill="#30737e" d="M 511.5,253.5 C 511.328,254.492 511.662,255.158 512.5,255.5C 511.577,257.767 510.744,260.1 510,262.5C 509.282,263.451 508.449,263.617 507.5,263C 509.15,259.861 510.483,256.694 511.5,253.5 Z"/></g>
<g><path style="opacity:1" fill="#61d8e4" d="M 324.5,264.5 C 325.167,264.5 325.833,264.5 326.5,264.5C 326.833,264.5 327.167,264.5 327.5,264.5C 336.115,265.497 344.782,265.663 353.5,265C 346.541,266.823 339.541,268.49 332.5,270C 331.667,270.833 330.833,271.667 330,272.5C 329.774,275.095 329.274,277.595 328.5,280C 324.637,281.354 320.637,281.854 316.5,281.5C 318.404,278.02 320.07,274.353 321.5,270.5C 321.94,268.156 322.94,266.156 324.5,264.5 Z"/></g>
<g><path style="opacity:1" fill="#60d5e1" d="M 481.5,265.5 C 491.647,265.643 501.98,265.309 512.5,264.5C 512.798,270.437 514.798,275.77 518.5,280.5C 514.083,281.87 509.75,281.703 505.5,280C 505.182,277.958 505.015,275.791 505,273.5C 503.833,272.333 502.667,271.167 501.5,270C 494.755,268.814 488.088,267.314 481.5,265.5 Z"/></g>
<g><path style="opacity:1" fill="#255d69" d="M 324.5,264.5 C 322.94,266.156 321.94,268.156 321.5,270.5C 321.5,268.167 321.5,265.833 321.5,263.5C 322.791,263.263 323.791,263.596 324.5,264.5 Z"/></g>
<g><path style="opacity:1" fill="#5bcbd7" d="M 491.5,277.5 C 490.076,279.515 489.41,281.848 489.5,284.5C 489.22,288.225 487.22,289.392 483.5,288C 480.554,283.055 476.388,279.555 471,277.5C 470.333,275.833 470.333,274.167 471,272.5C 475.411,275.955 479.911,279.289 484.5,282.5C 486.849,278.472 489.683,274.806 493,271.5C 492.85,273.506 492.35,275.506 491.5,277.5 Z"/></g>
<g><path style="opacity:1" fill="#5bcbd7" d="M 340.5,270.5 C 344.187,274.189 347.52,278.189 350.5,282.5C 355.014,279.409 359.347,276.075 363.5,272.5C 364.833,274.167 364.833,275.833 363.5,277.5C 357.866,280.492 352.866,284.158 348.5,288.5C 347.558,288.392 346.725,288.059 346,287.5C 345.234,281.418 343.401,275.751 340.5,270.5 Z"/></g>
<g><path style="opacity:1" fill="#255d67" d="M 491.5,277.5 C 491.59,280.152 490.924,282.485 489.5,284.5C 489.41,281.848 490.076,279.515 491.5,277.5 Z"/></g>
<g><path style="opacity:1" fill="#64dde9" d="M 393.5,304.5 C 397.553,305.35 401.553,306.516 405.5,308C 417.008,309.518 428.175,308.351 439,304.5C 441.175,304.834 443.008,305.834 444.5,307.5C 442.49,310.017 439.823,311.517 436.5,312C 429.781,314.544 426.448,319.378 426.5,326.5C 424.338,328.02 422.005,329.02 419.5,329.5C 418.529,337.298 416.863,337.464 414.5,330C 411.497,328.834 408.83,327.167 406.5,325C 407.942,321.872 407.442,319.038 405,316.5C 399.815,313.664 394.649,310.831 389.5,308C 390.731,306.595 392.064,305.429 393.5,304.5 Z"/></g>
<g><path style="opacity:1" fill="#58c6d2" d="M 301.5,401.5 C 284.833,401.5 268.167,401.5 251.5,401.5C 251.5,405.833 251.5,410.167 251.5,414.5C 250.514,410.03 250.181,405.363 250.5,400.5C 267.675,400.17 284.675,400.503 301.5,401.5 Z"/></g>
<g><path style="opacity:1" fill="#64dde9" d="M 152.5,400.5 C 163.742,399.676 174.742,400.843 185.5,404C 199.468,412.108 205.302,424.274 203,440.5C 202.438,445.083 201.105,449.417 199,453.5C 195.368,448.866 191.368,444.533 187,440.5C 188.711,423.21 180.877,414.377 163.5,414C 159.597,409.607 155.931,405.107 152.5,400.5 Z"/></g>
<g><path style="opacity:1" fill="#67e3ee" d="M 301.5,401.5 C 301.5,405.833 301.5,410.167 301.5,414.5C 284.833,414.5 268.167,414.5 251.5,414.5C 251.5,410.167 251.5,405.833 251.5,401.5C 268.167,401.5 284.833,401.5 301.5,401.5 Z"/></g>
<g><path style="opacity:1" fill="#65dfeb" d="M 342.5,400.5 C 348.537,400.171 354.537,400.504 360.5,401.5C 370.109,423.719 379.443,446.052 388.5,468.5C 382.5,469.833 376.5,469.833 370.5,468.5C 360.965,445.89 351.632,423.223 342.5,400.5 Z"/></g>
<g><path style="opacity:1" fill="#65dfeb" d="M 399.5,400.5 C 405.537,400.171 411.537,400.504 417.5,401.5C 410.925,417.646 404.091,433.646 397,449.5C 393.586,442.93 390.753,436.096 388.5,429C 392.034,419.435 395.7,409.935 399.5,400.5 Z"/></g>
<g><path style="opacity:1" fill="#67e3ee" d="M 462.5,401.5 C 478.167,401.5 493.833,401.5 509.5,401.5C 509.5,405.5 509.5,409.5 509.5,413.5C 493.833,413.5 478.167,413.5 462.5,413.5C 462.5,409.5 462.5,405.5 462.5,401.5 Z"/></g>
<g><path style="opacity:1" fill="#65dfeb" d="M 557.5,400.5 C 562.833,400.5 568.167,400.5 573.5,400.5C 573.5,423.5 573.5,446.5 573.5,469.5C 568.167,469.5 562.833,469.5 557.5,469.5C 557.5,446.5 557.5,423.5 557.5,400.5 Z"/></g>
<g><path style="opacity:1" fill="#4aa7b3" d="M 640.5,401.5 C 635.5,401.5 630.5,401.5 625.5,401.5C 625.5,406.167 625.5,410.833 625.5,415.5C 624.513,410.695 624.179,405.695 624.5,400.5C 630.026,400.179 635.36,400.512 640.5,401.5 Z"/></g>
<g><path style="opacity:1" fill="#65e0ec" d="M 640.5,401.5 C 656.326,419.135 672.159,436.802 688,454.5C 688.499,459.489 688.666,464.489 688.5,469.5C 683.156,469.666 677.823,469.499 672.5,469C 656.625,451.295 640.958,433.462 625.5,415.5C 625.5,410.833 625.5,406.167 625.5,401.5C 630.5,401.5 635.5,401.5 640.5,401.5 Z"/></g>
<g><path style="opacity:1" fill="#65dfeb" d="M 672.5,400.5 C 677.833,400.5 683.167,400.5 688.5,400.5C 688.667,411.172 688.5,421.839 688,432.5C 683,426.833 678,421.167 673,415.5C 672.501,410.511 672.334,405.511 672.5,400.5 Z"/></g>
<g><path style="opacity:1" fill="#57c2ce" d="M 462.5,401.5 C 478.325,400.504 494.325,400.17 510.5,400.5C 510.5,405.167 510.5,409.833 510.5,414.5C 494.325,414.83 478.325,414.496 462.5,413.5C 478.167,413.5 493.833,413.5 509.5,413.5C 509.5,409.5 509.5,405.5 509.5,401.5C 493.833,401.5 478.167,401.5 462.5,401.5 Z"/></g>
<g><path style="opacity:1" fill="#65e0ec" d="M 179.5,468.5 C 166.518,469.327 153.518,469.661 140.5,469.5C 140.167,451.488 140.5,433.488 141.5,415.5C 146.49,420.658 151.323,425.991 156,431.5C 156.5,439.493 156.666,447.493 156.5,455.5C 162.81,455.943 168.977,455.276 175,453.5C 178.312,456.812 181.645,460.145 185,463.5C 185.483,464.448 185.649,465.448 185.5,466.5C 183.214,466.595 181.214,467.262 179.5,468.5 Z"/></g>
<g><path style="opacity:1" fill="#62d8e4" d="M 250.5,428.5 C 267.5,428.5 284.5,428.5 301.5,428.5C 301.5,432.5 301.5,436.5 301.5,440.5C 284.5,440.5 267.5,440.5 250.5,440.5C 250.5,436.5 250.5,432.5 250.5,428.5 Z"/></g>
<g><path style="opacity:1" fill="#65dfeb" d="M 462.5,428.5 C 477.833,428.5 493.167,428.5 508.5,428.5C 508.5,433.167 508.5,437.833 508.5,442.5C 498.5,442.5 488.5,442.5 478.5,442.5C 478.5,451.5 478.5,460.5 478.5,469.5C 473.167,469.5 467.833,469.5 462.5,469.5C 462.5,455.833 462.5,442.167 462.5,428.5 Z"/></g>
<g><path style="opacity:1" fill="#459eaa" d="M 626.5,439.5 C 625.506,449.319 625.173,459.319 625.5,469.5C 624.177,459.326 624.177,448.993 625.5,438.5C 626.107,438.624 626.44,438.957 626.5,439.5 Z"/></g>
<g><path style="opacity:1" fill="#63dce8" d="M 626.5,439.5 C 631.103,444.605 635.936,449.605 641,454.5C 641.499,459.489 641.666,464.489 641.5,469.5C 636.167,469.5 630.833,469.5 625.5,469.5C 625.173,459.319 625.506,449.319 626.5,439.5 Z"/></g>
<g><path style="opacity:1" fill="#65e0ec" d="M 250.5,455.5 C 267.5,455.5 284.5,455.5 301.5,455.5C 301.5,460.167 301.5,464.833 301.5,469.5C 284.5,469.5 267.5,469.5 250.5,469.5C 250.5,464.833 250.5,460.167 250.5,455.5 Z"/></g>
<g><path style="opacity:1" fill="#1b4751" d="M 179.5,468.5 C 172.234,470.047 164.734,470.714 157,470.5C 151.323,470.499 145.823,470.166 140.5,469.5C 153.518,469.661 166.518,469.327 179.5,468.5 Z"/></g>
</svg>
